<svg width="512" height="512" viewBox="0 0 512 512" xmlns="http://www.w3.org/2000/svg">
  <!-- Background -->
  <rect width="512" height="512" fill="#1a1410"/>
  
  <!-- Border -->
  <rect x="20" y="20" width="472" height="472" fill="none" stroke="#d4521f" stroke-width="8" rx="60"/>
  
  <!-- Rope spiral design -->
  <g transform="translate(256, 256)">
    <!-- Main rope spiral -->
    <path d="M -150,0 Q -100,-80 0,-80 Q 100,-80 150,0 Q 100,80 0,80 Q -100,80 -150,0" 
          fill="none" stroke="#ff6b35" stroke-width="35" stroke-linecap="round"/>
    
    <path d="M -120,-40 Q -60,-100 20,-100 Q 100,-100 140,-40" 
          fill="none" stroke="#d4521f" stroke-width="30" stroke-linecap="round"/>
    
    <path d="M -140,40 Q -60,100 20,100 Q 100,100 120,40" 
          fill="none" stroke="#d4521f" stroke-width="30" stroke-linecap="round"/>
    
    <!-- Braided texture lines -->
    <line x1="-120" y1="-20" x2="-80" y2="20" stroke="#8b4513" stroke-width="8" stroke-linecap="round"/>
    <line x1="-40" y1="-30" x2="0" y2="10" stroke="#8b4513" stroke-width="8" stroke-linecap="round"/>
    <line x1="40" y1="-30" x2="80" y2="10" stroke="#8b4513" stroke-width="8" stroke-linecap="round"/>
    
    <!-- Center circle -->
    <circle cx="0" cy="0" r="25" fill="#ff6b35"/>
    <circle cx="0" cy="0" r="15" fill="#1a1410"/>
  </g>
  
  <!-- Title text -->
  <text x="256" y="440" font-family="Arial Black, sans-serif" font-size="48" font-weight="bold" 
        fill="#ff6b35" text-anchor="middle">ROPE</text>
  <text x="256" y="480" font-family="Arial, sans-serif" font-size="32" 
        fill="#f5e6d3" text-anchor="middle">ROLLER</text>
</svg>
